<svg width="151" height="38" viewBox="0 0 151 38" fill="none" xmlns="http://www.w3.org/2000/svg">
<g clip-path="url(#clip0_661_540)">
<path d="M145.686 38H78.0892C76.6804 37.9987 75.3295 37.4308 74.3332 36.4207C73.337 35.4109 72.7769 34.0413 72.7755 32.6129V5.38708C72.7761 4.67904 72.9143 3.97803 73.1822 3.32411C73.45 2.6702 73.8423 2.07616 74.3365 1.57592C74.8307 1.07568 75.4173 0.679041 76.0628 0.408645C76.7083 0.138249 77.4001 -0.000608385 78.0985 2.00364e-06H145.695C147.104 0.00246173 148.453 0.570967 149.449 1.58084C150.444 2.59072 151.004 3.95952 151.005 5.38708V32.6129C151.004 34.0421 150.443 35.4122 149.445 36.4223C148.448 37.4327 147.096 38 145.686 38ZM78.0985 1.92114C77.1919 1.92176 76.3228 2.28712 75.6817 2.93697C75.0408 3.58682 74.6802 4.46804 74.6797 5.38708V32.6129C74.6802 33.5322 75.0408 34.4137 75.6817 35.0638C76.3225 35.7141 77.1916 36.0801 78.0985 36.0811H145.695C146.602 36.0801 147.471 35.7141 148.112 35.0638C148.753 34.4137 149.114 33.5322 149.114 32.6129V5.38708C149.114 4.93124 149.025 4.47993 148.852 4.05894C148.68 3.63797 148.427 3.2556 148.109 2.93368C147.791 2.61178 147.413 2.35667 146.997 2.18292C146.581 2.00918 146.136 1.92023 145.686 1.92114H78.0985Z" fill="white"/>
<path d="M22.4055 29.7346L12.8938 6.92028C12.762 6.5938 12.5374 6.31449 12.2485 6.11789C11.9595 5.92128 11.6195 5.81628 11.2715 5.81628C10.9236 5.81628 10.5835 5.92128 10.2945 6.11789C10.0056 6.31449 9.78097 6.5938 9.64919 6.92028L0.137494 29.7346C-0.0448227 30.1677 -0.0499562 30.6566 0.123223 31.0937C0.296403 31.5306 0.633708 31.8798 1.06094 32.0647C1.48816 32.2496 1.97032 32.2547 2.40133 32.0793C2.83234 31.9036 3.1769 31.5616 3.35924 31.1285L11.2715 12.1285L19.1838 31.1053C19.3661 31.5384 19.7107 31.8804 20.1417 32.0558C20.5727 32.2315 21.0548 32.2261 21.4821 32.0415C21.9093 31.8567 22.2466 31.5074 22.4198 31.0702C22.593 30.6334 22.5878 30.1445 22.4055 29.7114V29.7346Z" fill="white"/>
<path d="M59.2538 31.3608C59.3064 31.2732 59.3525 31.1816 59.3913 31.0867L68.9008 8.28161C68.9978 8.06604 69.0512 7.83294 69.0577 7.5961C69.0642 7.35929 69.0241 7.1235 68.9393 6.90275C68.8544 6.68197 68.7267 6.48068 68.5638 6.31079C68.4009 6.14087 68.2062 6.00579 67.991 5.91354C67.7757 5.82126 67.5442 5.77369 67.3105 5.77361C67.0768 5.77356 66.8456 5.82099 66.6303 5.91311C66.4148 6.00522 66.2199 6.14019 66.057 6.31001C65.8941 6.47979 65.7664 6.681 65.6812 6.90173L57.7691 25.8762L49.8544 6.89709C49.7788 6.66435 49.6563 6.45007 49.4947 6.26775C49.3331 6.08546 49.136 5.93912 48.9156 5.83797C48.6955 5.73683 48.4569 5.68306 48.2154 5.68012C47.9736 5.67716 47.7339 5.72505 47.5114 5.82078C47.2888 5.9165 47.0882 6.05797 46.9223 6.23627C46.7564 6.41455 46.6289 6.62578 46.5476 6.85659C46.4663 7.08742 46.4332 7.33283 46.4503 7.57729C46.4671 7.82176 46.5341 8.06 46.6466 8.27695L56.1398 31.0821C56.2612 31.3861 56.4629 31.6502 56.7226 31.8451C56.9826 32.0402 57.2906 32.1588 57.6126 32.1876C57.935 32.2165 58.2587 32.1545 58.5482 32.0087C58.8377 31.8626 59.082 31.6386 59.2538 31.3608Z" fill="white"/>
<path d="M34.8685 32.19H27.4123C25.0956 32.0973 25.0934 28.7404 27.4123 28.6453H34.8685C36.8554 28.6428 38.7601 27.8416 40.1649 26.4177C41.57 24.9937 42.3608 23.063 42.3638 21.0489V16.9581C42.3613 14.9435 41.5708 13.0122 40.1657 11.5878C38.7606 10.1633 36.8556 9.36191 34.8685 9.35946H27.4123C25.1002 9.26888 25.0888 5.9121 27.4123 5.81454H34.8685C37.7855 5.81454 40.5832 6.98931 42.646 9.08044C44.7085 11.1716 45.8674 14.0077 45.8674 16.965V21.0489C45.8649 24.0046 44.7052 26.8384 42.6427 28.9274C40.5802 31.0166 37.7841 32.19 34.8685 32.19Z" fill="white"/>
<path d="M94.0354 19.4367C93.9687 19.3861 93.9142 19.3204 93.8768 19.2448C93.8393 19.1692 93.8201 19.0857 93.8201 19.0012C93.8201 18.9166 93.8393 18.8331 93.8768 18.7575C93.9142 18.6819 93.9687 18.6162 94.0354 18.5656C99.2621 14.635 96.7208 5.88189 89.8236 5.80756H80.9696C80.7121 5.80756 80.4649 5.91131 80.2827 6.09603C80.1005 6.28075 79.998 6.53128 79.998 6.79251V15.6572C79.9983 15.8661 80.0642 16.0695 80.1859 16.2379L82.1749 19L80.1859 21.7621C80.0645 21.9306 79.9986 22.1339 79.998 22.3428V31.2053C79.998 31.3344 80.0233 31.4626 80.0721 31.582C80.1208 31.7017 80.1924 31.81 80.2827 31.9017C80.373 31.993 80.48 32.0655 80.598 32.1151C80.7156 32.1647 80.842 32.19 80.9696 32.19H89.8236C96.7186 32.1181 99.2645 23.3603 94.0354 19.4367ZM89.8236 30.2202H81.9413V22.6634L84.1615 19.5831C84.2827 19.4134 84.3475 19.2093 84.3472 19C84.348 18.7913 84.283 18.5879 84.1615 18.4192L81.9413 15.3319V7.77978H89.8236C96.5446 8.06087 96.5422 17.7339 89.8236 18.015H86.815C86.5653 18.0273 86.3297 18.1366 86.1573 18.3202C85.9846 18.5038 85.8884 18.7476 85.8884 19.0012C85.8884 19.2547 85.9846 19.4985 86.1573 19.6821C86.3297 19.8657 86.5653 19.975 86.815 19.9873H89.8236C96.5514 20.266 96.5536 29.9413 89.8236 30.2202Z" fill="white"/>
<path d="M112.197 32.1623C109.386 32.1593 106.691 31.0258 104.704 29.0107C102.716 26.9956 101.598 24.2634 101.595 21.4136V16.5353C102.177 2.27892 122.218 2.27892 122.799 16.5353V21.4136C122.796 24.2634 121.678 26.9956 119.691 29.0107C117.703 31.0258 115.008 32.1593 112.197 32.1623ZM112.197 7.75195C109.901 7.75443 107.7 8.68012 106.077 10.3259C104.453 11.9717 103.54 14.2032 103.538 16.5307V21.409C104.012 33.0543 120.382 33.0543 120.856 21.409V16.5307C120.854 14.2032 119.941 11.9717 118.317 10.3259C116.694 8.68012 114.493 7.75443 112.197 7.75195Z" fill="white"/>
<path d="M135.975 19.2997C135.918 19.2104 135.888 19.1064 135.888 19C135.888 18.8936 135.918 18.7896 135.975 18.7003L143.308 7.3338C143.449 7.11507 143.498 6.84853 143.445 6.5928C143.393 6.33707 143.242 6.11311 143.026 5.97016C142.81 5.82725 142.547 5.77704 142.295 5.83061C142.043 5.88422 141.822 6.03719 141.681 6.25592L135.075 16.4935C135.026 16.5727 134.959 16.6382 134.879 16.6835C134.799 16.7289 134.708 16.7527 134.616 16.7527C134.525 16.7527 134.434 16.7289 134.354 16.6835C134.274 16.6382 134.206 16.5727 134.158 16.4935L127.573 6.25592C127.501 6.14486 127.409 6.04953 127.3 5.97563C127.192 5.90176 127.07 5.8508 126.941 5.82587C126.813 5.80091 126.681 5.8025 126.553 5.83048C126.425 5.85848 126.304 5.9123 126.198 5.98876C125.991 6.14434 125.852 6.37482 125.809 6.63198C125.767 6.88914 125.824 7.1531 125.969 7.36864L133.269 18.7003C133.326 18.7896 133.357 18.8936 133.357 19C133.357 19.1064 133.326 19.2104 133.269 19.2997L125.937 30.6687C125.805 30.8872 125.762 31.1492 125.818 31.399C125.874 31.6489 126.023 31.8669 126.235 32.0068C126.447 32.1466 126.704 32.1976 126.952 32.1485C127.2 32.0995 127.419 31.9545 127.563 31.744L134.16 21.5042C134.209 21.425 134.276 21.3595 134.356 21.3142C134.436 21.2688 134.527 21.245 134.619 21.245C134.711 21.245 134.801 21.2688 134.881 21.3142C134.961 21.3595 135.029 21.425 135.077 21.5042L141.674 31.744C141.818 31.9545 142.038 32.0995 142.286 32.1485C142.534 32.1976 142.791 32.1466 143.002 32.0068C143.214 31.8669 143.364 31.6489 143.419 31.399C143.475 31.1492 143.432 30.8872 143.301 30.6687L135.975 19.2997Z" fill="white"/>
</g>
<defs>
<clipPath id="clip0_661_540">
<rect width="151" height="38" fill="white"/>
</clipPath>
</defs>
</svg>
